<?xml version="1.0" encoding="UTF-8" standalone="no"?>
<!-- Created with Inkscape (http://www.inkscape.org/) -->

<svg
   width="100%"
   height="100%"
   viewBox="0 0 99.999995 100"
   version="1.1"
   id="svg1"
   xmlns:xlink="http://www.w3.org/1999/xlink"
   xmlns="http://www.w3.org/2000/svg"
   xmlns:svg="http://www.w3.org/2000/svg">
  <defs
     id="defs1">
    <linearGradient
       id="linearGradient7">
      <stop
         style="stop-color:#712c00;stop-opacity:1;"
         offset="0.25202671"
         id="stop7" />
      <stop
         style="stop-color:#803300;stop-opacity:1"
         offset="1"
         id="stop8" />
    </linearGradient>
    <linearGradient
       xlink:href="#linearGradient7"
       id="linearGradient8"
       x1="12.579406"
       y1="86.809654"
       x2="12.162841"
       y2="18.029585"
       gradientUnits="userSpaceOnUse"
       gradientTransform="matrix(1.1740309,0,0,1.1744685,56.253206,-58.404434)" />
  </defs>
  <g
     id="layer1">
    <rect
       style="fill:url(#linearGradient8);stroke-width:0.342933"
       id="rect1"
       width="8.3791809"
       height="105.76384"
       x="67.009796"
       y="-50.901573"
       ry="4.2837906"
       transform="rotate(45)" />
    <circle
       style="fill:#aa4400;stroke-width:0.264583"
       id="path8"
       cx="15.382922"
       cy="85.139877"
       r="5.9137068" />
    <circle
       style="fill:#aa4400;stroke-width:0.264583"
       id="path9"
       cx="31.329998"
       cy="69.360199"
       r="5.1016583" />
    <circle
       style="fill:#008000;stroke-width:0.264583"
       id="path10"
       cx="42.323639"
       cy="58.059875"
       r="2.0246909" />
    <circle
       style="fill:#d40000;stroke-width:0.264583"
       id="path11"
       cx="51.910091"
       cy="48.509842"
       r="1.911285" />
    <path
       style="fill:#800080;stroke-width:0.264583"
       id="path15"
       d="m 72.181594,10.288931 c -2.636103,1.532454 1.153583,2.535794 -0.378871,-0.100308 -1.532454,-2.6361029 -2.535794,1.153583 0.100308,-0.3788712 2.636103,-1.5324543 -1.153583,-2.5357944 0.378871,0.1003081 1.532454,2.6361021 2.535794,-1.1535835 -0.100308,0.3788711 z" />
    <path
       style="fill:#800080;stroke-width:0.264583"
       id="path16"
       d="m 67.807012,18.798509 c -1.78552,3.831135 3.320651,1.971441 -0.510485,0.185921 -3.831136,-1.78552 -1.971442,3.32065 -0.185921,-0.510485 1.78552,-3.831136 -3.320651,-1.971442 0.510485,-0.185922 3.831136,1.78552 1.971441,-3.32065 0.185921,0.510486 z" />
    <path
       style="fill:#800080;stroke-width:0.264583"
       id="path17"
       d="m 54.333781,10.201399 c -5.532301,3.732722 2.890644,5.368741 -0.842077,-0.16356 -3.732722,-5.5323003 -5.368741,2.890645 0.163559,-0.8420767 5.532301,-3.7327214 -2.890644,-5.368741 0.842078,0.1635598 3.732721,5.5323009 5.368741,-2.8906443 -0.16356,0.8420769 z" />
    <path
       style="fill:#800080;stroke-width:0.264583"
       id="path18"
       d="m 88.23154,39.450484 c 7.16317,2.200267 2.651334,-6.312148 0.451067,0.851022 -2.200267,7.163169 6.312148,2.651334 -0.851022,0.451067 -7.163169,-2.200267 -2.651334,6.312147 -0.451067,-0.851022 2.200267,-7.16317 -6.312147,-2.651334 0.851022,-0.451067 z" />
    <path
       style="fill:#800080;stroke-width:0.264583"
       id="path19"
       d="m 71.037322,46.46311 c -1.616809,1.286418 1.02255,1.586781 -0.263868,-0.03003 -1.286418,-1.61681 -1.586781,1.02255 0.03003,-0.263868 1.61681,-1.286418 -1.02255,-1.586781 0.263868,0.03003 1.286418,1.61681 1.586781,-1.02255 -0.03003,0.263868 z" />
    <path
       style="fill:#800080;stroke-width:0.264583"
       id="path20"
       d="m 47.628473,28.307337 c -4.920725,0.309303 -0.166043,4.501604 -0.475346,-0.419122 -0.309302,-4.920725 -4.501603,-0.166043 0.419122,-0.475345 4.920725,-0.309303 0.166043,-4.501603 0.475346,0.419122 0.309302,4.920725 4.501603,0.166043 -0.419122,0.475345 z" />
  </g>
</svg>
